<svg id="Camada_1" data-name="Camada 1" xmlns="http://www.w3.org/2000/svg" viewBox="0 0 110 40"><defs><style>.cls-1{fill:#fff;}.cls-2{fill:#48bfe6;}</style></defs><title>logo_hidroquimica</title><path class="cls-1" d="M24.83,27.16h.07v2.58h-.07Z"/><path class="cls-1" d="M28.13,27.16v2.58h-.06L26.18,27.3v2.44h-.07V27.16h.06l1.89,2.44V27.16Z"/><path class="cls-1" d="M29.33,27.16h1a1.29,1.29,0,1,1,0,2.58h-1Zm1,2.51a1.22,1.22,0,1,0,0-2.44h-.89v2.44Z"/><path class="cls-1" d="M32.58,28.66v-1.5h.07v1.5c0,.69.34,1,.92,1s.92-.33.92-1v-1.5h.08v1.5c0,.73-.38,1.09-1,1.09S32.58,29.39,32.58,28.66Zm1.34-2.12h.15l-.55.41h-.11Z"/><path class="cls-1" d="M35.47,29.39l.05-.05a1.15,1.15,0,0,0,.85.34c.56,0,.81-.26.81-.57,0-.87-1.64-.36-1.64-1.31,0-.34.26-.65.87-.65a1.33,1.33,0,0,1,.75.23l0,.06a1.21,1.21,0,0,0-.7-.22c-.54,0-.79.26-.79.58,0,.87,1.64.37,1.64,1.31,0,.34-.27.64-.88.64A1.21,1.21,0,0,1,35.47,29.39Z"/><path class="cls-1" d="M38.63,27.23h-1v-.07h2v.07h-1v2.51h-.07Z"/><path class="cls-1" d="M42.22,29.74l-.66-.91a1.39,1.39,0,0,1-.3,0h-.8v.88h-.07V27.16h.87c.63,0,1,.31,1,.85a.78.78,0,0,1-.63.8l.67.93Zm-.95-.95c.6,0,.93-.29.93-.78s-.33-.78-.93-.78h-.81v1.56Z"/><path class="cls-1" d="M43.25,27.16h.07v2.58h-.07Z"/><path class="cls-1" d="M46.09,29H44.51l-.36.78h-.08l1.19-2.58h.08l1.2,2.58h-.09Zm0-.07-.76-1.63-.75,1.63Z"/><path class="cls-1" d="M50.14,29.67v.07H48.42V27.16h1.66v.07H48.5v1.16h1.42v.07H48.5v1.21Z"/><path class="cls-1" d="M52,28.45a1.28,1.28,0,0,1,1.32-1.3,1.25,1.25,0,0,1,.88.33l0,.05a1.12,1.12,0,0,0-.83-.31,1.23,1.23,0,1,0,0,2.46,1.16,1.16,0,0,0,.83-.31l0,.05a1.25,1.25,0,0,1-.88.33A1.28,1.28,0,0,1,52,28.45Z"/><path class="cls-1" d="M54.76,28.45a1.33,1.33,0,1,1,1.33,1.3A1.29,1.29,0,0,1,54.76,28.45Zm2.57,0a1.25,1.25,0,1,0-1.24,1.23A1.21,1.21,0,0,0,57.33,28.45Z"/><path class="cls-1" d="M60.88,27.16v2.58h-.07V27.32l-1.18,2.05h0l-1.18-2v2.41h-.07V27.16h.06l1.21,2.12,1.21-2.12Z"/><path class="cls-1" d="M63.8,29.67v.07H62.08V27.16h1.66v.07H62.16v1.16h1.42v.07H62.16v1.21ZM62.86,27h-.11l.51-.41h.15Z"/><path class="cls-1" d="M66.6,29.74l-.66-.91a1.39,1.39,0,0,1-.3,0h-.8v.88h-.07V27.16h.87c.63,0,1,.31,1,.85a.78.78,0,0,1-.63.8l.67.93Zm-.95-.95c.6,0,.93-.29.93-.78s-.33-.78-.93-.78h-.81v1.56Z"/><path class="cls-1" d="M67.35,28.45a1.29,1.29,0,0,1,1.33-1.3,1.22,1.22,0,0,1,.87.33l0,.05a1.14,1.14,0,0,0-.83-.31,1.23,1.23,0,1,0,0,2.46,1.18,1.18,0,0,0,.83-.31l0,.05a1.22,1.22,0,0,1-.87.33A1.29,1.29,0,0,1,67.35,28.45Z"/><path class="cls-1" d="M70.47,27.16h.07v2.58h-.07Z"/><path class="cls-1" d="M71.47,28.45a1.33,1.33,0,1,1,1.32,1.3A1.28,1.28,0,0,1,71.47,28.45Zm2.57,0a1.25,1.25,0,1,0-1.25,1.23A1.22,1.22,0,0,0,74,28.45Z"/><path class="cls-1" d="M76.19,27.16h.07v2.51H77.8v.07H76.19Z"/><path class="cls-1" d="M78.79,27.23h-1v-.07h2v.07h-1v2.51h-.07Z"/><path class="cls-1" d="M80.55,27.16h1a1.29,1.29,0,1,1,0,2.58h-1Zm1,2.51a1.22,1.22,0,1,0,0-2.44h-.9v2.44Z"/><path class="cls-1" d="M85.34,29H83.77l-.37.78h-.08l1.2-2.58h.07l1.2,2.58H85.7Zm0-.07-.76-1.63-.75,1.63Z"/><path class="cls-1" d="M51.72,14.33a1.34,1.34,0,0,1,1.09-.78,1.14,1.14,0,0,1,.82.32,1.07,1.07,0,0,1,.33.81v8.61a1.41,1.41,0,0,1-.29.9,1,1,0,0,1-.83.35,1.12,1.12,0,0,1-.61-.17,1,1,0,0,1-.38-.46,1.44,1.44,0,0,1-.13-.62V20.86a2.83,2.83,0,0,1-3.08.38,3.67,3.67,0,0,1-1.07-.73,4.17,4.17,0,0,1-1.1-3.07,4.22,4.22,0,0,1,.24-1.38,4.46,4.46,0,0,1,.69-1.29,3.36,3.36,0,0,1,1.07-.92,2.7,2.7,0,0,1,1.34-.34A2.57,2.57,0,0,1,51.72,14.33Zm-3,3.1a2.69,2.69,0,0,0,.17.93,1.81,1.81,0,0,0,.52.74,1.19,1.19,0,0,0,.8.29A1.24,1.24,0,0,0,51,19.1a1.69,1.69,0,0,0,.52-.73,2.52,2.52,0,0,0,0-1.87,1.72,1.72,0,0,0-.52-.74,1.24,1.24,0,0,0-.82-.28,1.16,1.16,0,0,0-.8.29,1.77,1.77,0,0,0-.52.73A2.69,2.69,0,0,0,48.71,17.43Z"/><path class="cls-1" d="M62.69,14.8v3.59a2.86,2.86,0,0,1-.55,1.86,3.19,3.19,0,0,1-1.29,1,4,4,0,0,1-3.28,0,3.19,3.19,0,0,1-1.29-1,2.92,2.92,0,0,1-.55-1.86V14.8a1.33,1.33,0,0,1,.3-.89,1,1,0,0,1,.81-.36,1,1,0,0,1,.83.36,1.33,1.33,0,0,1,.3.89v3.32a1.27,1.27,0,0,0,.35,1,1.19,1.19,0,0,0,.89.38,1.25,1.25,0,0,0,1.23-1.34V14.8a1.33,1.33,0,0,1,.3-.89,1,1,0,0,1,.83-.36,1,1,0,0,1,.82.36A1.31,1.31,0,0,1,62.69,14.8Z"/><path class="cls-1" d="M64.61,20.33V14.79a1.3,1.3,0,0,1,.3-.88,1,1,0,0,1,.82-.36,1,1,0,0,1,.82.36,1.3,1.3,0,0,1,.3.88v5.54a1.36,1.36,0,0,1-.3.9,1,1,0,0,1-.82.36,1,1,0,0,1-.82-.37A1.35,1.35,0,0,1,64.61,20.33Z"/><path class="cls-1" d="M71.07,14.28A2.61,2.61,0,0,1,73,13.56a3,3,0,0,1,1.52.31,2.12,2.12,0,0,1,.63.61,5,5,0,0,1,1.15-.73,3,3,0,0,1,1.21-.19,2.84,2.84,0,0,1,1.36.28,2.54,2.54,0,0,1,1.33,2.25v4.24a1.32,1.32,0,0,1-.3.9,1,1,0,0,1-.82.36,1.08,1.08,0,0,1-.6-.17,1.14,1.14,0,0,1-.38-.46,1.45,1.45,0,0,1-.13-.63V16.7a1.11,1.11,0,0,0-.33-.84,1.2,1.2,0,0,0-.86-.32,1.08,1.08,0,0,0-.82.34,1.12,1.12,0,0,0-.33.82v3.63a1.41,1.41,0,0,1-.29.9,1.1,1.1,0,0,1-1.64,0,1.31,1.31,0,0,1-.31-.89v-3.4a1.64,1.64,0,0,0-.28-1,1,1,0,0,0-.88-.39,1.16,1.16,0,0,0-1.16,1.16v3.63a1.36,1.36,0,0,1-.3.9,1,1,0,0,1-.82.36,1,1,0,0,1-.82-.37,1.35,1.35,0,0,1-.3-.89V14.84A1.45,1.45,0,0,1,69.1,14a1,1,0,0,1,.76-.4A1.54,1.54,0,0,1,71.07,14.28Z"/><path class="cls-2" d="M11.24,14.2a4,4,0,0,1,2-.64A2.59,2.59,0,0,1,16,16.4v3.93a1.36,1.36,0,0,1-.3.9,1,1,0,0,1-.83.36,1,1,0,0,1-.81-.37,1.36,1.36,0,0,1-.31-.89V17a1.84,1.84,0,0,0-.31-1.11,1.11,1.11,0,0,0-1-.43,1.14,1.14,0,0,0-.9.42,1.43,1.43,0,0,0-.37,1v3.46a1.36,1.36,0,0,1-.3.9,1.1,1.1,0,0,1-1.64,0,1.35,1.35,0,0,1-.3-.89V11.48a1.47,1.47,0,0,1,.13-.62,1,1,0,0,1,1-.61,1.05,1.05,0,0,1,.83.35,1.32,1.32,0,0,1,.3.88Z"/><path class="cls-2" d="M17.66,20.39V15a1.28,1.28,0,0,1,.3-.87,1,1,0,0,1,.81-.34,1,1,0,0,1,.83.34,1.28,1.28,0,0,1,.3.87v5.39a1.28,1.28,0,0,1-.3.87,1,1,0,0,1-.83.36,1,1,0,0,1-.81-.36A1.31,1.31,0,0,1,17.66,20.39Z"/><path class="cls-2" d="M26.81,14.27V11.49a1.3,1.3,0,0,1,.3-.88,1,1,0,0,1,.83-.36,1,1,0,0,1,.82.36,1.3,1.3,0,0,1,.3.88v8.82a1.46,1.46,0,0,1-.29.91,1,1,0,0,1-.81.37,1,1,0,0,1-.69-.22,1.75,1.75,0,0,1-.46-.71,2,2,0,0,1-.81.71,2.65,2.65,0,0,1-1.13.22,2.81,2.81,0,0,1-1.4-.38,3.75,3.75,0,0,1-1.12-1,5,5,0,0,1-.83-2.83,4.17,4.17,0,0,1,1.37-3,3.16,3.16,0,0,1,2.17-.83A2.76,2.76,0,0,1,26.81,14.27Zm-3,3.17a2.26,2.26,0,0,0,.42,1.35,1.32,1.32,0,0,0,1.14.6,1.26,1.26,0,0,0,.82-.29,1.76,1.76,0,0,0,.51-.75,2.44,2.44,0,0,0,0-1.84,1.79,1.79,0,0,0-.51-.74,1.21,1.21,0,0,0-.82-.29,1.32,1.32,0,0,0-.85.28,1.76,1.76,0,0,0-.53.74A2.5,2.5,0,0,0,23.76,17.44Z"/><path class="cls-2" d="M32.9,14.4a2.25,2.25,0,0,1,1.53-.84,1.19,1.19,0,0,1,.83.31,1,1,0,0,1,.34.77.81.81,0,0,1-.28.7,2.77,2.77,0,0,1-.86.4,3.76,3.76,0,0,0-1.19.57,1.07,1.07,0,0,0-.35.91v3.07a1.47,1.47,0,0,1-.3.94,1,1,0,0,1-.83.36,1,1,0,0,1-.82-.37,1.46,1.46,0,0,1-.3-.93v-5.4a1.27,1.27,0,0,1,.27-.9,1,1,0,0,1,.81-.38A1.2,1.2,0,0,1,32.9,14.4Z"/><path class="cls-2" d="M37.86,14.29a4.24,4.24,0,0,0-1.24,3,4.29,4.29,0,0,0,1.31,3l0,0a4.37,4.37,0,0,0,3.11,1.21,4.43,4.43,0,0,0,3.09-1.27l0,0a4.22,4.22,0,0,0,1.24-3,4.29,4.29,0,0,0-1.31-3l-3.17-3Zm3.1.07,1.55,1.45a2.16,2.16,0,0,1,.47.66,2.12,2.12,0,0,1,.18.79,2.05,2.05,0,0,1-.58,1.47l0,0a2.2,2.2,0,0,1-1.49.64,2.14,2.14,0,0,1-1.51-.57l0,0a2.05,2.05,0,0,1-.07-2.93Z"/><path class="cls-2" d="M17.65,11.4a1.11,1.11,0,0,1,.33-.8,1.08,1.08,0,0,1,.79-.34,1.14,1.14,0,0,1,.79,1.94,1.09,1.09,0,0,1-1.58,0A1.11,1.11,0,0,1,17.65,11.4Z"/><path class="cls-1" d="M82.13,11.4a1.11,1.11,0,0,1,.33-.8,1.08,1.08,0,0,1,.79-.34A1.14,1.14,0,0,1,84,12.2a1.09,1.09,0,0,1-1.58,0A1.11,1.11,0,0,1,82.13,11.4Z"/><path class="cls-1" d="M82.13,20.33V14.79a1.3,1.3,0,0,1,.3-.88,1,1,0,0,1,.81-.36,1,1,0,0,1,.83.36,1.3,1.3,0,0,1,.3.88v5.54a1.36,1.36,0,0,1-.3.9,1,1,0,0,1-.83.36,1,1,0,0,1-.81-.37A1.35,1.35,0,0,1,82.13,20.33Z"/><path class="cls-1" d="M85.92,17.52a4.65,4.65,0,0,1,.29-1.62,3.39,3.39,0,0,1,.89-1.31,3.72,3.72,0,0,1,1.2-.76,3.77,3.77,0,0,1,1.39-.27,4.8,4.8,0,0,1,1.78.32A1.13,1.13,0,0,1,92.32,15a.83.83,0,0,1-.21.62.89.89,0,0,1-.72.28,2.22,2.22,0,0,1-.71-.2l-.11,0a2.64,2.64,0,0,0-.8-.15,1.49,1.49,0,0,0-1.1.49,2.14,2.14,0,0,0-.5,1.5,2.23,2.23,0,0,0,.2,1,1.61,1.61,0,0,0,.6.69,1.82,1.82,0,0,0,1,.25,1.88,1.88,0,0,0,.84-.22,1.73,1.73,0,0,1,.61-.18.92.92,0,0,1,.68.26.81.81,0,0,1,.28.64,1.34,1.34,0,0,1-.43,1,2.78,2.78,0,0,1-1,.52,4.22,4.22,0,0,1-1.1.17,3.69,3.69,0,0,1-2.83-1.16A4.13,4.13,0,0,1,85.92,17.52Z"/><path class="cls-1" d="M98.76,20.66a2.84,2.84,0,0,1-.84.71,2.32,2.32,0,0,1-1,.22,3.28,3.28,0,0,1-2.2-.86,4,4,0,0,1-1.32-3.16,4,4,0,0,1,1.17-3,3.19,3.19,0,0,1,2.31-1,2.38,2.38,0,0,1,1,.2,3.37,3.37,0,0,1,.88.68,1.21,1.21,0,0,1,1.1-.88A1.13,1.13,0,0,1,101,14.7v5.56a1.44,1.44,0,0,1-.31.94,1,1,0,0,1-.85.39C99.33,21.59,99,21.25,98.76,20.66ZM95.6,17.39a2.51,2.51,0,0,0,.38,1.4,1.25,1.25,0,0,0,1.13.6,1.48,1.48,0,0,0,.88-.27,1.7,1.7,0,0,0,.57-.7,2.09,2.09,0,0,0,.2-.92,2.44,2.44,0,0,0-.41-1.45,1.41,1.41,0,0,0-1.24-.57,1.28,1.28,0,0,0-1.11.59A2.26,2.26,0,0,0,95.6,17.39Z"/><path class="cls-1" d="M64.87,12.31h0a.66.66,0,0,1,0-.94l.81-.86a.66.66,0,0,1,.94,0h0a.66.66,0,0,1,0,.94l-.81.86A.66.66,0,0,1,64.87,12.31Z"/></svg>